<?xml version="1.0" encoding="utf-8"?>
<!-- Generator: Adobe Illustrator 15.0.2, SVG Export Plug-In . SVG Version: 6.00 Build 0)  -->
<!DOCTYPE svg PUBLIC "-//W3C//DTD SVG 1.1//EN" "http://www.w3.org/Graphics/SVG/1.1/DTD/svg11.dtd">
<svg version="1.1" id="Layer_1" xmlns="http://www.w3.org/2000/svg" xmlns:xlink="http://www.w3.org/1999/xlink" x="0px" y="0px"
	 width="400px" height="110px" viewBox="0 0 400 110" enable-background="new 0 0 400 110" xml:space="preserve">
<g id="Layer_1_1_">
	<g>
		<path fill="#9BBEC9" d="M96.27,50.841v0.721c0,3.479,1.702,5.239,5.241,5.239c3.226,0,4.839-2.04,4.839-4.159
			c0-3.001-1.703-4.32-4.57-5.081l-3.49-1.079c-4.659-1.601-6.68-3.761-6.68-7.841c0-5.2,3.943-8.08,9.946-8.08
			c8.198,0,9.05,4.56,9.05,7.521v0.64H105.5v-0.601c0-2.6-1.299-4.119-4.48-4.119c-2.191,0-4.301,1.08-4.301,4.119
			c0,2.44,1.389,3.681,4.794,4.841l3.45,1.12c4.521,1.439,6.495,3.64,6.495,7.56c0,6.083-4.121,8.601-10.572,8.601
			c-7.93,0-9.722-4.722-9.722-8.721v-0.68L96.27,50.841L96.27,50.841z"/>
		<path fill="#9BBEC9" d="M115.489,30.801h4.842v4.319h-4.842V30.801z M115.489,38.162h4.842v21.52h-4.842V38.162z"/>
		<path fill="#9BBEC9" d="M123.059,38.162h3.315v-6.121h4.839v6.121h3.938v3.199h-3.938v12.841c0,1.68,0.537,2.28,2.195,2.28
			c0.717,0,1.299-0.041,1.742-0.121v3.201c-1.025,0.24-2.374,0.355-3.896,0.355c-3.271,0-4.884-0.801-4.884-5.201V41.36h-3.315
			L123.059,38.162L123.059,38.162z"/>
		<path fill="#9BBEC9" d="M141.831,49.482v1.239c0,2.88,0.399,6.56,4.027,6.56c3.45,0,3.854-3.521,3.854-4.799h4.569
			c0,4.76-3.229,7.76-8.471,7.76c-3.938,0-8.822-1.041-8.822-11c0-5.641,1.345-11.641,8.912-11.641c6.724,0,8.516,3.6,8.516,9.601
			v2.28H141.831z M149.581,46.521v-1.16c0-2.72-0.985-4.8-3.723-4.8c-3.091,0-4.027,2.72-4.027,5.521v0.439H149.581z"/>
	</g>
	<g>
		<path fill="#9BBEC9" d="M159.2,31.133h15.318v1.521h-13.438v11.399h12.499v1.521h-12.499v14.12H159.2V31.133z"/>
		<path fill="#9BBEC9" d="M190.649,59.693h-1.702v-3.16h-0.089c-0.807,1.84-2.774,3.641-5.959,3.641c-3.313,0-5.914-1.68-5.914-5.64
			V38.773h1.703v15.041c0,3.719,1.747,5,4.659,5c3.584,0,5.6-3,5.6-6.646v-13.4h1.702V59.693z"/>
		<path fill="#9BBEC9" d="M205.254,44.654v-0.601c0-1.88-0.537-4.399-4.395-4.399c-2.463,0-4.521,1.119-4.521,3.88
			c0,2.2,1.165,3.319,3.495,4.12l3.584,1.199c2.818,0.961,4.256,2.721,4.256,5.561c0,3.52-3.047,5.76-6.765,5.76
			c-6.496,0-6.944-4.16-6.944-6.6v-0.561h1.702v0.681c0,2.96,1.344,5.121,5.242,5.121c3.444,0,4.882-2.041,4.882-4.356
			c0-2-0.896-3.36-3.494-4.28l-3.449-1.24c-2.912-1.039-4.391-2.56-4.391-5.24c0-3.479,2.688-5.399,6.402-5.399
			c5.197,0,6.097,3.16,6.097,5.72v0.641h-1.702V44.654L205.254,44.654z"/>
		<path fill="#9BBEC9" d="M211.168,31.133h1.701v4.08h-1.701V31.133z M211.168,38.773h1.701v20.92h-1.701V38.773z"/>
		<path fill="#9BBEC9" d="M224.742,60.174c-6.188,0-7.707-4.92-7.707-10.96c0-6,1.521-10.92,7.975-10.92
			c6.184,0,7.705,4.92,7.705,10.92C232.715,55.253,231.193,60.174,224.742,60.174z M224.875,39.654c-4.479,0-5.957,3.56-5.957,9.6
			c0,6,1.479,9.561,5.957,9.561c4.478,0,5.959-3.561,5.959-9.561C230.834,43.213,229.355,39.654,224.875,39.654z"/>
		<path fill="#9BBEC9" d="M236.703,38.773h1.697v3.16h0.094c0.807-1.84,2.773-3.64,5.959-3.64c3.313,0,5.914,1.68,5.914,5.64v15.76
			h-1.703V44.653c0-3.721-1.748-5-4.658-5c-3.584,0-5.604,3-5.604,6.64v13.4h-1.697L236.703,38.773L236.703,38.773z"/>
	</g>
	<g>
		<g>
			<path fill="#FFFFFF" d="M303.5,96.385h1.531v1.117H303.5v4.779c0,0.58,0.162,0.686,0.953,0.686h0.578v1.115h-0.968
				c-1.31,0-1.833-0.268-1.833-1.68v-4.898h-1.311v-1.117h1.311v-2.309h1.266L303.5,96.385L303.5,96.385z"/>
			<path fill="#FFFFFF" d="M306.668,93.449h1.266v4.068h0.029c0.415-0.924,1.504-1.313,2.427-1.313c2.024,0,2.648,1.164,2.648,2.817
				v5.06h-1.265v-5.21c0-0.938-0.594-1.549-1.563-1.549c-1.535,0-2.278,1.027-2.278,2.412v4.347h-1.267V93.449H306.668z"/>
			<path fill="#FFFFFF" d="M321.516,101.643c-0.344,1.696-1.566,2.619-3.293,2.619c-2.456,0-3.62-1.697-3.691-4.05
				c0-2.31,1.52-4.007,3.618-4.007c2.729,0,3.562,2.547,3.484,4.41h-5.763c-0.046,1.341,0.719,2.531,2.398,2.531
				c1.043,0,1.771-0.506,1.995-1.504H321.516L321.516,101.643z M320.294,99.497c-0.062-1.207-0.971-2.175-2.22-2.175
				c-1.324,0-2.114,0.998-2.204,2.175H320.294z"/>
			<path fill="#FFFFFF" d="M331.306,96.385h2.01v1.43h0.029c0.388-0.969,1.43-1.64,2.458-1.64c0.146,0,0.327,0.03,0.462,0.075v1.966
				c-0.193-0.047-0.505-0.073-0.758-0.073c-1.55,0-2.086,1.113-2.086,2.471v3.471h-2.115V96.385L331.306,96.385z"/>
			<path fill="#FFFFFF" d="M340.627,96.175c2.426,0,3.988,1.609,3.988,4.065c0,2.443-1.563,4.052-3.988,4.052
				c-2.412,0-3.979-1.608-3.979-4.052C336.65,97.784,338.214,96.175,340.627,96.175z M340.627,102.697
				c1.44,0,1.875-1.235,1.875-2.457c0-1.235-0.435-2.473-1.875-2.473c-1.433,0-1.863,1.235-1.863,2.473
				C338.765,101.462,339.197,102.697,340.627,102.697z"/>
			<path fill="#FFFFFF" d="M346.043,96.385h2.011v1.072h0.046c0.535-0.863,1.457-1.282,2.351-1.282c2.25,0,2.815,1.267,2.815,3.173
				v4.734h-2.114v-4.348c0-1.266-0.373-1.891-1.355-1.891c-1.146,0-1.639,0.639-1.639,2.202v4.034h-2.116L346.043,96.385
				L346.043,96.385z"/>
			<path fill="#FFFFFF" d="M357.736,96.385h1.549v1.414h-1.549v3.814c0,0.718,0.178,0.894,0.896,0.894
				c0.225,0,0.432-0.017,0.652-0.06v1.654c-0.355,0.058-0.815,0.073-1.231,0.073c-1.294,0-2.429-0.3-2.429-1.831v-4.547h-1.279
				v-1.415h1.279v-2.308h2.112V96.385z"/>
			<path fill="#FFFFFF" d="M323.349,93.449h7.253v1.884h-5.138v2.541h4.313v1.731h-4.313v4.477h-2.115V93.449z"/>
			<path fill="#FFFFFF" d="M361.473,93.449h4.586c2.753,0,4.824,1.729,4.824,5.258c0,3.084-1.58,5.375-4.824,5.375h-4.586V93.449z
				 M363.585,95.191v7.147h2.311c0.673,0,2.873-0.243,2.873-3.409c0-2.517-1.074-3.738-3.291-3.738H363.585z"/>
			<path fill="#FFFFFF" d="M376.003,96.175c2.428,0,3.988,1.609,3.988,4.065c0,2.443-1.563,4.052-3.988,4.052
				c-2.411,0-3.976-1.608-3.976-4.052C372.03,97.784,373.592,96.175,376.003,96.175z M376.003,102.697
				c1.442,0,1.876-1.235,1.876-2.457c0-1.235-0.434-2.473-1.876-2.473c-1.43,0-1.861,1.235-1.861,2.473
				C374.143,101.462,374.573,102.697,376.003,102.697z"/>
			<path fill="#FFFFFF" d="M385.103,96.175c2.428,0,3.991,1.609,3.991,4.065c0,2.443-1.563,4.052-3.991,4.052
				c-2.413,0-3.976-1.608-3.976-4.052C381.127,97.784,382.69,96.175,385.103,96.175z M385.103,102.697
				c1.445,0,1.874-1.235,1.874-2.457c0-1.235-0.43-2.473-1.874-2.473c-1.43,0-1.861,1.235-1.861,2.473
				C383.24,101.462,383.673,102.697,385.103,102.697z"/>
			<path fill="#FFFFFF" d="M390.465,96.385h2.01v1.43h0.029c0.387-0.969,1.428-1.64,2.456-1.64c0.146,0,0.326,0.03,0.462,0.075
				v1.966c-0.193-0.047-0.504-0.073-0.761-0.073c-1.548,0-2.085,1.113-2.085,2.471v3.471h-2.111V96.385L390.465,96.385z"/>
		</g>
	</g>
	<g>
		<path fill="#FFFFFF" d="M253.647,97.292c0.623,0,1.097,0.16,1.414,0.479c0.318,0.316,0.479,0.769,0.479,1.347
			c0,0.575-0.16,1.024-0.479,1.351c-0.317,0.321-0.791,0.481-1.414,0.477h-1.889v2.525h-0.82v-6.179H253.647z M253.368,100.251
			c0.468,0.006,0.81-0.09,1.023-0.285c0.217-0.194,0.322-0.479,0.322-0.848c0-0.369-0.105-0.649-0.322-0.845
			c-0.218-0.193-0.56-0.291-1.023-0.291h-1.609v2.269H253.368z"/>
		<path fill="#FFFFFF" d="M256.492,100.314c0.092-0.285,0.229-0.533,0.416-0.744c0.184-0.209,0.41-0.375,0.684-0.495
			c0.271-0.121,0.582-0.183,0.937-0.183c0.355,0,0.674,0.062,0.938,0.183c0.27,0.12,0.494,0.286,0.683,0.495
			c0.187,0.211,0.319,0.459,0.414,0.744c0.096,0.287,0.141,0.595,0.141,0.922c0,0.33-0.045,0.636-0.141,0.918
			c-0.095,0.283-0.229,0.529-0.414,0.74c-0.188,0.209-0.412,0.375-0.683,0.492c-0.27,0.115-0.582,0.178-0.938,0.178
			c-0.354,0-0.66-0.063-0.937-0.178c-0.271-0.117-0.5-0.283-0.684-0.492c-0.188-0.211-0.324-0.457-0.416-0.74
			c-0.094-0.282-0.141-0.588-0.141-0.918C256.354,100.909,256.401,100.604,256.492,100.314z M257.24,101.96
			c0.072,0.211,0.174,0.388,0.301,0.526c0.127,0.144,0.273,0.25,0.443,0.326c0.17,0.074,0.354,0.107,0.541,0.107
			c0.189,0,0.371-0.033,0.541-0.107c0.17-0.076,0.316-0.188,0.443-0.326c0.127-0.141,0.229-0.315,0.301-0.526
			c0.07-0.211,0.107-0.45,0.107-0.724c0-0.271-0.037-0.512-0.107-0.723c-0.072-0.211-0.174-0.391-0.301-0.531
			c-0.127-0.146-0.273-0.254-0.443-0.33c-0.17-0.073-0.352-0.11-0.541-0.11c-0.188,0-0.371,0.037-0.541,0.11
			c-0.17,0.076-0.316,0.187-0.443,0.33c-0.127,0.145-0.229,0.32-0.301,0.531c-0.07,0.211-0.105,0.447-0.105,0.723
			C257.132,101.51,257.168,101.749,257.24,101.96z"/>
		<path fill="#FFFFFF" d="M265.386,103.471l-0.906-3.558h-0.02l-0.896,3.558h-0.797l-1.438-4.474h0.813l1.012,3.659h0.021
			l0.897-3.659h0.808l0.938,3.659h0.018l1.004-3.659h0.763l-1.429,4.474H265.386z"/>
		<path fill="#FFFFFF" d="M271.634,103.186c-0.334,0.254-0.756,0.381-1.262,0.381c-0.359,0-0.668-0.06-0.935-0.174
			c-0.265-0.115-0.479-0.271-0.662-0.48c-0.178-0.207-0.313-0.455-0.399-0.744c-0.09-0.287-0.142-0.604-0.148-0.939
			c0-0.344,0.051-0.649,0.152-0.938c0.104-0.283,0.25-0.525,0.438-0.734c0.188-0.207,0.41-0.367,0.666-0.482
			c0.26-0.114,0.539-0.172,0.846-0.172c0.396,0,0.729,0.082,0.99,0.246c0.263,0.164,0.475,0.373,0.633,0.627
			c0.156,0.254,0.268,0.529,0.326,0.83c0.062,0.301,0.086,0.586,0.074,0.854h-3.352c-0.004,0.191,0.02,0.383,0.067,0.563
			c0.054,0.176,0.138,0.332,0.25,0.467c0.115,0.136,0.267,0.244,0.439,0.324c0.182,0.078,0.393,0.119,0.635,0.119
			c0.313,0,0.563-0.07,0.769-0.219c0.196-0.146,0.33-0.359,0.395-0.652h0.729C272.186,102.555,271.97,102.932,271.634,103.186z
			 M271.459,100.313c-0.063-0.152-0.156-0.289-0.271-0.398c-0.109-0.109-0.244-0.201-0.396-0.271
			c-0.149-0.063-0.32-0.101-0.506-0.101c-0.188,0-0.361,0.033-0.516,0.101c-0.152,0.065-0.285,0.155-0.396,0.271
			c-0.108,0.113-0.193,0.25-0.263,0.4c-0.063,0.152-0.104,0.313-0.11,0.49h2.567C271.563,100.632,271.524,100.469,271.459,100.313z"
			/>
		<path fill="#FFFFFF" d="M273.955,98.997v0.942h0.021c0.178-0.362,0.396-0.633,0.655-0.809c0.261-0.174,0.588-0.254,0.986-0.238
			v0.773c-0.297,0-0.549,0.041-0.756,0.121c-0.207,0.082-0.375,0.197-0.502,0.354c-0.127,0.154-0.219,0.346-0.275,0.564
			c-0.059,0.225-0.086,0.479-0.086,0.768v1.988h-0.731v-4.473h0.688V98.997L273.955,98.997z"/>
		<path fill="#FFFFFF" d="M279.354,103.186c-0.334,0.254-0.756,0.381-1.264,0.381c-0.357,0-0.668-0.06-0.935-0.174
			c-0.262-0.115-0.479-0.271-0.659-0.48c-0.181-0.207-0.313-0.455-0.402-0.744c-0.09-0.287-0.139-0.604-0.148-0.939
			c0-0.344,0.053-0.649,0.154-0.938c0.104-0.283,0.25-0.525,0.438-0.734c0.188-0.207,0.408-0.367,0.666-0.482
			c0.258-0.114,0.537-0.172,0.844-0.172c0.396,0,0.729,0.082,0.992,0.246c0.262,0.164,0.476,0.373,0.631,0.627
			c0.158,0.254,0.271,0.529,0.328,0.83c0.063,0.301,0.086,0.586,0.072,0.854h-3.35c-0.006,0.191,0.018,0.383,0.068,0.563
			c0.051,0.176,0.135,0.332,0.25,0.467c0.112,0.136,0.266,0.244,0.438,0.324c0.183,0.078,0.394,0.119,0.633,0.119
			c0.313,0,0.566-0.07,0.769-0.219c0.199-0.146,0.33-0.359,0.395-0.652h0.729C279.905,102.555,279.69,102.932,279.354,103.186z
			 M279.177,100.313c-0.064-0.152-0.154-0.289-0.271-0.398c-0.108-0.109-0.241-0.201-0.396-0.271
			c-0.15-0.063-0.318-0.101-0.506-0.101c-0.188,0-0.359,0.033-0.517,0.101c-0.152,0.066-0.282,0.155-0.396,0.271
			c-0.107,0.113-0.192,0.25-0.26,0.4c-0.063,0.152-0.104,0.313-0.113,0.49h2.57C279.281,100.632,279.242,100.469,279.177,100.313z"
			/>
		<path fill="#FFFFFF" d="M284.27,103.471v-0.604h-0.02c-0.121,0.244-0.313,0.428-0.572,0.533c-0.26,0.109-0.545,0.164-0.854,0.164
			c-0.35,0-0.648-0.063-0.904-0.188c-0.258-0.127-0.471-0.299-0.643-0.514c-0.17-0.215-0.299-0.463-0.385-0.742
			c-0.088-0.283-0.133-0.582-0.133-0.896c0-0.315,0.045-0.617,0.125-0.897c0.084-0.283,0.213-0.529,0.383-0.74
			c0.172-0.211,0.385-0.379,0.643-0.502c0.258-0.125,0.557-0.187,0.896-0.187c0.113,0,0.236,0.011,0.369,0.033
			c0.135,0.021,0.268,0.063,0.396,0.113c0.134,0.059,0.261,0.127,0.38,0.221c0.114,0.09,0.217,0.195,0.299,0.33h0.02v-2.303h0.732
			v6.18h-0.732L284.27,103.471L284.27,103.471z M281.625,101.882c0.058,0.199,0.142,0.378,0.252,0.533
			c0.109,0.153,0.256,0.278,0.435,0.371c0.176,0.094,0.383,0.139,0.616,0.139c0.248,0,0.459-0.049,0.634-0.146
			c0.174-0.096,0.313-0.227,0.424-0.385c0.106-0.16,0.188-0.34,0.238-0.541c0.049-0.203,0.071-0.404,0.071-0.615
			c0-0.219-0.022-0.432-0.078-0.635c-0.053-0.205-0.135-0.389-0.243-0.541c-0.113-0.153-0.261-0.278-0.438-0.377
			c-0.182-0.098-0.396-0.145-0.648-0.145c-0.247,0-0.459,0.049-0.633,0.146c-0.172,0.099-0.313,0.229-0.414,0.39
			c-0.104,0.161-0.18,0.348-0.227,0.555s-0.068,0.423-0.068,0.642C281.543,101.479,281.571,101.684,281.625,101.882z"/>
		<path fill="#FFFFFF" d="M289.653,97.292v2.312h0.02c0.121-0.248,0.313-0.429,0.57-0.541c0.26-0.109,0.545-0.168,0.854-0.168
			c0.347,0,0.646,0.063,0.903,0.188c0.256,0.127,0.469,0.299,0.641,0.517c0.172,0.215,0.299,0.465,0.387,0.748
			c0.087,0.282,0.131,0.582,0.131,0.899c0,0.315-0.041,0.616-0.125,0.897c-0.085,0.283-0.213,0.525-0.383,0.736
			c-0.17,0.215-0.385,0.381-0.643,0.498c-0.256,0.121-0.555,0.186-0.896,0.186c-0.107,0-0.229-0.012-0.365-0.035
			c-0.137-0.022-0.271-0.063-0.402-0.11c-0.133-0.054-0.258-0.123-0.377-0.213c-0.114-0.09-0.217-0.199-0.297-0.332h-0.02v0.597
			h-0.734v-6.179H289.653z M292.295,100.585c-0.055-0.198-0.141-0.377-0.25-0.532c-0.11-0.156-0.258-0.279-0.436-0.371
			c-0.176-0.095-0.383-0.14-0.617-0.14c-0.248,0-0.457,0.049-0.633,0.146c-0.174,0.099-0.313,0.229-0.424,0.385
			c-0.107,0.16-0.188,0.342-0.236,0.541c-0.051,0.203-0.074,0.406-0.074,0.615c0,0.219,0.025,0.434,0.078,0.635
			c0.053,0.205,0.135,0.389,0.248,0.541c0.109,0.156,0.258,0.281,0.436,0.377c0.183,0.098,0.396,0.145,0.65,0.145
			c0.252,0,0.465-0.049,0.635-0.146c0.17-0.096,0.31-0.229,0.412-0.391c0.104-0.16,0.178-0.347,0.228-0.554
			c0.045-0.207,0.065-0.422,0.065-0.642C292.377,100.986,292.35,100.784,292.295,100.585z"/>
		<path fill="#FFFFFF" d="M295.696,104.611c-0.084,0.15-0.176,0.271-0.275,0.367c-0.102,0.097-0.211,0.166-0.332,0.209
			s-0.268,0.063-0.436,0.063c-0.086,0-0.172-0.006-0.26-0.021c-0.086-0.012-0.171-0.027-0.25-0.062v-0.677
			c0.066,0.023,0.141,0.048,0.211,0.07c0.07,0.021,0.146,0.035,0.223,0.035c0.148,0,0.271-0.035,0.361-0.104
			c0.096-0.067,0.174-0.171,0.24-0.304l0.305-0.752l-1.771-4.447h0.832l1.31,3.66h0.018l1.257-3.66h0.776l-1.944,5.064
			C295.864,104.277,295.78,104.462,295.696,104.611z"/>
	</g>
</g>
</svg>
